{"title":"The.Darkness.2016.1080p.Blu-ray.x264.DTS5.1-FR.MSubs-DDR.mkv","uid":15711394,"size":6470878277,"categoryP":"video","categoryS":"hd___movies","magnet":"?xt=urn:btih:ebd1e4f2a33c90da7ac1e647406edffcb662e485&amp;dn=The.Darkness.2016.1080p.Blu-ray.x264.DTS5.1-FR.MSubs-DDR.mkv&amp;tr=udp%3A%2F%2Ftracker.leechers-paradise.org%3A6969&amp;tr=udp%3A%2F%2Fzer0day.ch%3A1337&amp;tr=udp%3A%2F%2Fopen.demonii.com%3A1337&amp;tr=udp%3A%2F%2Ftracker.coppersurfer.tk%3A6969&amp;tr=udp%3A%2F%2Fexodus.desync.com%3A6969","seeders":8,"leechers":9,"uploader":"SaM","files":3,"time":1472577673,"description":"- HollyWooD Movie-\r\n\r\nThe ness\r\n\r\n** 2016 **\r\n1080p / Blu-ray / x264\r\nFrench DTS 5.1\r\nEnglish, French &amp; Spanish subs\r\n\r\nForced &amp; Hearing Impaired subs included\r\n \nhttp://extraimago.com/image/wql9 \nhttp://extraimago.com/image/wql3 \nhttp://extraimago.com/image/wqlb \nhttp://extraimago.com/image/wqlh \nhttp://extraimago.com/image/wqld \nhttp://extraimago.com/image/wqlI \nhttp://extraimago.com/image/wqll \nhttp://extraimago.com/image/wqli \nhttp://extraimago.com/image/wqlm \nhttp://extraimago.com/image/wqlR \nhttp://extraimago.com/image/wqlQ \nhttp://extraimago.com/image/wqlL \nhttp://extraimago.com/image/wqly\r\n\r\nSOURCE: BD50 @ HDB\r\n\r\nFile size : 5.98 GiB\r\nDuration : 1 h 32 min\r\nOverall bit rate : 9 266 kb/s\r\n\r\nVideo\r\nFormat : AVC\r\nFormat/Info : Advanced Video Codec\r\nFormat profile :   \r\nFormat settings, CABAC : Yes\r\nFormat settings, ReFrames : 5 frames\r\nCodec ID : V_MPEG4/ISO/AVC\r\nDuration : 1 h 32 min\r\nBit rate : 8 484 kb/s\r\nWidth : 1 920 pixels\r\nHeight : 804 pixels\r\nDisplay aspect ratio : 2.40:1\r\nFrame rate mode : Constant\r\nFrame rate : 23.976 (24000/1001) FPS\r\ncolor space : YUV\r\nChroma subsampling : 4:2:0\r\nBit depth : 8 bits\r\nScan type : Progressive\r\nBits/(Pixel*Frame) : 0.229\r\nStream size : 5.47 GiB (92%)\r\n\r\nAudio\r\nFormat : DTS\r\nFormat/Info : Digital Theater Systems\r\nMode : 16\r\nFormat settings, Endianness : Big\r\nCodec ID : A_DTS\r\nDuration : 1 h 32 min\r\nBit rate mode : Constant\r\nBit rate : 768 kb/s\r\nChannel(s) : 6 channels\r\nChannel positions : Front: L C R, Side: L R, LFE\r\nSampling rate : 48.0 kHz\r\nFrame rate : 93.750 FPS (512 spf)\r\nBit depth : 24 bits\r\nCompression mode : Lossy\r\nStream size : 507 MiB (8%)\r\nLanguage : French\r\nDefault : Yes\r\nForced : No\r\n\r\nChapters = Yes\r\nSample : Included","torrent":{"xt":"urn:btih:ebd1e4f2a33c90da7ac1e647406edffcb662e485","amp;dn":"The.Darkness.2016.1080p.Blu-ray.x264.DTS5.1-FR.MSubs-DDR.mkv","amp;tr":["udp%3A%2F%2Ftracker.leechers-paradise.org%3A6969","udp%3A%2F%2Fzer0day.ch%3A1337","udp%3A%2F%2Fopen.demonii.com%3A1337","udp%3A%2F%2Ftracker.coppersurfer.tk%3A6969","udp%3A%2F%2Fexodus.desync.com%3A6969"],"infoHash":"ebd1e4f2a33c90da7ac1e647406edffcb662e485","infoHashBuffer":{"type":"Buffer","data":[235,209,228,242,163,60,144,218,122,193,230,71,64,110,223,252,182,98,228,133]},"announce":[],"urlList":[]}}